<?xml version="1.0" encoding="UTF-8" standalone="no"?>
<!-- Created with Inkscape (http://www.inkscape.org/) -->

<svg
   xmlns:dc="http://purl.org/dc/elements/1.1/"
   xmlns:cc="http://creativecommons.org/ns#"
   xmlns:rdf="http://www.w3.org/1999/02/22-rdf-syntax-ns#"
   xmlns:svg="http://www.w3.org/2000/svg"
   xmlns="http://www.w3.org/2000/svg"
   xmlns:sodipodi="http://sodipodi.sourceforge.net/DTD/sodipodi-0.dtd"
   xmlns:inkscape="http://www.inkscape.org/namespaces/inkscape"
   version="1.1"
   id="svg3548"
   width="219"
   height="219"
   viewBox="0 0 219 219"
   sodipodi:docname="logo-ppt3.svg"
   inkscape:version="0.92.2 (5c3e80d, 2017-08-06)">
  <metadata
     id="metadata3554">
    <rdf:RDF>
      <cc:Work
         rdf:about="">
        <dc:format>image/svg+xml</dc:format>
        <dc:type
           rdf:resource="http://purl.org/dc/dcmitype/StillImage" />
        <dc:title></dc:title>
      </cc:Work>
    </rdf:RDF>
  </metadata>
  <defs
     id="defs3552" />
  <sodipodi:namedview
     pagecolor="#ffffff"
     bordercolor="#666666"
     borderopacity="1"
     objecttolerance="10"
     gridtolerance="10"
     guidetolerance="10"
     inkscape:pageopacity="0"
     inkscape:pageshadow="2"
     inkscape:window-width="1366"
     inkscape:window-height="705"
     id="namedview3550"
     showgrid="false"
     inkscape:pagecheckerboard="true"
     inkscape:zoom="1.0776256"
     inkscape:cx="8.3516949"
     inkscape:cy="220.85593"
     inkscape:window-x="-8"
     inkscape:window-y="-8"
     inkscape:window-maximized="1"
     inkscape:current-layer="svg3548" />
  <path
     style="fill:#ffffff;stroke-width:0.40899467"
     d="m 108.82834,206.68013 c -0.70202,-0.3091 -1.78448,-1.22811 -2.40545,-2.04224 -0.92764,-1.21621 -1.12541,-1.88397 -1.1087,-3.74372 0.0228,-2.55071 0.7218,-3.91862 2.57909,-5.04811 0.99112,-0.60273 2.81261,-0.83173 9.6914,-1.2183 4.65899,-0.26181 9.35594,-0.53722 10.43768,-0.61199 2.19327,-0.15159 3.19112,-0.77849 2.43797,-1.53163 -0.34367,-0.34368 -3.71536,-0.33393 -13.1443,0.0381 -6.97512,0.27519 -13.2406,0.37765 -13.9233,0.22771 -2.84655,-0.62521 -4.403618,-4.61561 -3.08602,-7.90866 1.12605,-2.81428 1.88142,-3.02359 12.25201,-3.39494 18.75824,-0.67174 18.48647,-0.64713 17.54586,-1.58776 -0.21747,-0.21747 -6.92294,-1.04491 -14.90105,-1.83878 -16.377419,-1.62961 -16.552136,-1.6559 -18.054898,-2.71786 -3.176048,-2.24446 -2.197671,-8.53639 1.518086,-9.7627 1.365192,-0.45055 9.360212,0.23257 24.079652,2.05749 3.97936,0.49336 7.21401,0.50577 7.96431,0.0305 1.25832,-0.79696 -1.80807,-1.6759 -14.21571,-4.07477 -7.1396,-1.38035 -13.27849,-2.77321 -13.83774,-3.13964 -1.43689,-0.9415 -2.30189,-3.26191 -2.00996,-5.39184 0.51086,-3.72703 2.96562,-5.31127 7.0877,-4.5742 2.37154,0.42407 14.4027,2.71467 29.77244,5.66838 4.49895,0.8646 8.24052,1.51532 8.31461,1.44604 0.074,-0.0692 -2.57803,-1.94091 -5.89364,-4.15919 -3.3156,-2.21829 -6.413,-4.54903 -6.88313,-5.17941 -0.63925,-0.85718 -0.85022,-1.73124 -0.83672,-3.46661 0.0291,-3.76528 2.06771,-5.9516 5.55056,-5.95328 2.07849,-8.3e-4 1.97061,-0.0617 12.92416,7.27293 3.3258,2.227 7.21058,4.96818 8.63285,6.09152 l 2.58593,2.04247 7.67814,0.20132 c 8.59134,0.22525 13.59774,-0.34912 19.46057,-2.23265 3.48885,-1.12089 13.6319,-5.70267 14.31481,-6.46626 0.67133,-0.75066 4.95512,-3.48101 5.46152,-3.48101 0.98328,0 0.37815,1.73516 -2.23171,6.39936 -1.48534,2.65451 -3.62379,6.67171 -4.75211,8.92713 -1.12833,2.25542 -4.67618,8.97802 -7.88414,14.93912 -3.20795,5.96111 -6.93248,12.9549 -8.27671,15.54179 -6.13961,11.81528 -6.82093,12.7214 -11.25716,14.97168 -6.21468,3.1524 -10.80122,3.54568 -46.7237,4.00644 -14.39773,0.18464 -17.81823,0.12359 -18.8632,-0.33644 z m 38.08595,-1.05003 c 13.53713,-0.29079 16.5078,-0.46554 19.63174,-1.15486 4.88774,-1.0785 6.20529,-1.6017 5.58803,-2.21896 -0.79775,-0.79776 -0.53435,-1.53899 0.5469,-1.53899 0.56237,0 1.02247,0.20401 1.02247,0.45334 0,0.85545 2.22277,-0.0736 3.77412,-1.57753 1.91376,-1.85525 4.24368,-6.24133 3.54486,-6.67324 -0.2669,-0.16494 -0.37054,-0.59881 -0.23037,-0.96414 0.20973,-0.5465 0.11633,-0.59007 -0.52699,-0.24578 -0.98375,0.5265 -1.65367,0.53552 -1.65367,0.0224 0,-0.21788 0.29747,-0.282 0.66107,-0.14248 0.55493,0.21294 0.58913,0.11927 0.21309,-0.58338 -0.34684,-0.64808 -0.3126,-0.9494 0.15171,-1.33475 0.71861,-0.5964 1.83709,-0.25563 1.83709,0.55971 0,0.89653 1.18077,1.15134 1.6308,0.35191 0.21805,-0.38737 1.53033,-2.91288 2.91616,-5.61225 1.38584,-2.69936 5.10066,-9.69318 8.25514,-15.5418 3.15451,-5.84863 6.32927,-11.9222 7.05502,-13.49682 0.72576,-1.57464 2.34936,-4.61142 3.60804,-6.74843 1.80446,-3.06369 2.15153,-3.91504 1.64105,-4.02547 -0.35608,-0.077 -1.13534,0.30487 -1.7317,0.84864 -1.49045,1.35896 -9.8142,5.34198 -14.22884,6.80869 -7.37169,2.44914 -15.96822,3.3483 -24.93491,2.60808 -4.52737,-0.37372 -4.54961,-0.3808 -6.95291,-2.20819 -3.13602,-2.3845 -17.24211,-11.92885 -18.88885,-12.78043 -1.58863,-0.8215 -2.65562,-0.83112 -4.18979,-0.0378 -2.16763,1.12092 -3.09581,4.38493 -1.91708,6.74151 0.2856,0.57097 3.308,2.91878 6.84463,5.31692 4.62904,3.13888 6.33319,4.51454 6.33319,5.11241 0,0.57959 -0.31432,0.85442 -1.07841,0.94295 -0.59312,0.0687 -7.86298,-1.18723 -16.15529,-2.79101 -24.10932,-4.66288 -24.10599,-4.66234 -25.47824,-4.09395 -2.37566,0.98402 -3.28319,5.16943 -1.55624,7.17713 0.8533,0.99203 1.96109,1.2806 14.15862,3.68839 7.27811,1.43669 13.6824,2.90667 14.23178,3.26663 0.72373,0.4742 0.9639,0.95473 0.87192,1.74444 -0.24151,2.07359 -0.49802,2.06597 -27.33863,-0.81241 -2.36938,-0.25407 -4.813712,-0.33504 -5.431852,-0.1799 -1.444784,0.36262 -2.731008,2.47069 -2.73296,4.4792 -0.002,1.96191 0.536394,2.98063 1.953313,3.69647 1.328112,0.671 1.745289,0.72526 17.676899,2.30005 15.73128,1.55499 15.06504,1.43738 15.38585,2.71559 0.14856,0.59194 0.054,1.24043 -0.22096,1.51583 -0.32251,0.323 -4.99544,0.68732 -14.20725,1.10771 l -13.72668,0.62642 -1.1819,1.32276 c -0.8571,0.95927 -1.18146,1.74244 -1.18034,2.85004 0.002,1.98609 1.29653,4.08455 2.74648,4.45212 0.6256,0.15858 6.91369,0.0783 13.97356,-0.17846 8.57499,-0.31181 13.0894,-0.33123 13.59907,-0.0585 0.99543,0.53273 1.02707,2.66546 0.0472,3.18208 -0.39365,0.20755 -4.58073,0.58364 -9.30461,0.83573 -12.12658,0.6472 -12.72735,0.7328 -14.16637,2.01867 -2.38692,2.1329 -1.88388,6.10038 0.99613,7.85644 1.212,0.73899 2.08512,0.79619 11.73876,0.76914 5.73614,-0.0161 17.60722,-0.18341 26.38015,-0.37185 z m 28.69779,-7.23043 c -0.14996,-0.14997 -0.27266,-0.6986 -0.27266,-1.21921 0,-0.66266 0.29966,-1.02174 0.99925,-1.19732 1.29497,-0.32502 1.86371,0.0527 1.86371,1.23807 0,1.17493 -1.78276,1.98598 -2.5903,1.17846 z m 1.66154,-1.20144 c -0.1359,-0.1359 -0.48866,-0.15043 -0.7839,-0.0323 -0.32628,0.13056 -0.22936,0.22746 0.2471,0.2471 0.43115,0.0177 0.67271,-0.0788 0.5368,-0.21481 z m -16.65801,-1.38887 c 0,-0.54533 0.27267,-0.81798 0.81799,-0.81798 0.54532,0 0.81798,0.27265 0.81798,0.81798 0,0.54533 -0.27266,0.818 -0.81798,0.818 -0.54532,0 -0.81799,-0.27267 -0.81799,-0.818 z m 2.86296,-0.77029 c 0,-0.71078 1.00741,-1.25442 2.35172,-1.2691 0.74216,-0.007 0.62805,1.49806 -0.13569,1.79114 -1.2719,0.48806 -2.21603,0.26566 -2.21603,-0.52204 z m 13.57062,-0.92616 c 0.1715,-1.15267 1.36963,-1.93167 2.00056,-1.30074 0.76553,0.76553 0.0468,2.17921 -1.10787,2.17921 -0.81475,0 -0.99673,-0.17908 -0.89269,-0.87847 z m -22.79502,-0.79316 c -0.38652,-0.62538 0.45231,-1.34916 1.2215,-1.05399 0.35256,0.13529 0.64099,0.52781 0.64099,0.8723 0,0.71478 -1.44584,0.85585 -1.86249,0.18169 z m 9.2244,-1.80484 c 0,-0.79427 0.20995,-1.02248 0.9407,-1.02248 1.04077,0 1.92226,0.69395 1.92226,1.51328 0,0.335 -0.52959,0.53169 -1.43148,0.53169 -1.25425,0 -1.43148,-0.12653 -1.43148,-1.02249 z m 11.04285,-0.58349 c 0,-0.99777 0.17428,-1.25698 0.84518,-1.25698 0.68014,0 0.81987,0.21891 0.71573,1.12123 -0.078,0.67626 -0.41347,1.17512 -0.84516,1.25698 -0.55585,0.10547 -0.71575,-0.14507 -0.71575,-1.12123 z m -14.3148,-0.43899 c 0,-0.61601 0.21353,-0.83684 0.71574,-0.74013 0.39365,0.0758 0.71574,0.40887 0.71574,0.74013 0,0.33126 -0.32209,0.66432 -0.71574,0.74013 -0.50221,0.0966 -0.71574,-0.12411 -0.71574,-0.74013 z m 1.36433,-1.04999 c -0.13528,-0.35254 -0.0498,-0.8371 0.18985,-1.07677 0.63617,-0.63619 1.71777,-0.0777 1.71777,0.88694 0,1.00867 -1.5348,1.1614 -1.90762,0.18983 z m -3.00031,-6.5164 c 0,-0.74983 0.21812,-1.0225 0.81798,-1.0225 0.59987,0 0.818,0.27267 0.818,1.0225 0,0.74982 -0.21813,1.02248 -0.818,1.02248 -0.59986,0 -0.81798,-0.27266 -0.81798,-1.02248 z M 53.205951,206.03441 c -6.967204,-1.02088 -12.737302,-4.72085 -16.902706,-10.83854 -1.187427,-1.74398 -9.455822,-16.90351 -18.29224,-33.53757 -1.792466,-3.3742 -4.488519,-8.37118 -5.99122,-11.10437 -1.502715,-2.73321 -2.7322001,-5.17185 -2.7322001,-5.4192 0,-0.7139 1.3222091,-0.51883 2.6584631,0.39228 3.93657,2.68407 8.909006,4.51968 15.541808,5.73739 4.059196,0.74524 7.27732,0.86657 32.924066,1.2412 15.633823,0.22838 28.842538,0.49901 29.352707,0.60141 l 0.927595,0.18617 -0.02521,22.68958 c -0.02336,21.10135 -0.07388,22.69046 -0.723095,22.70257 -0.64942,0.0114 -0.648198,0.0508 0.01773,0.55633 0.540502,0.4103 0.714366,1.1331 0.710158,2.95221 -0.0086,3.56396 -0.27892,4.24934 -1.678089,4.24934 -0.648598,0 -1.179277,-0.22085 -1.179277,-0.49078 0,-0.38172 -0.109047,-0.38172 -0.490808,0 -0.695045,0.69507 -7.686818,0.67647 -7.695349,-0.0204 -0.0051,-0.40434 -0.07341,-0.40549 -0.327469,-0.005 -0.375502,0.59119 -4.52704,0.62278 -5.25353,0.04 -0.298255,-0.23926 -0.573413,-0.22143 -0.739885,0.048 -0.306389,0.49575 -16.743172,0.51214 -20.101568,0.0199 z m 15.391404,-0.91656 c 0.646652,-0.40384 0.978231,-0.40384 1.624881,0 0.446852,0.27908 1.229051,0.49572 1.738226,0.48146 l 0.925792,-0.026 -0.920239,-0.36988 c -1.484659,-0.59678 -1.161365,-1.62324 0.511244,-1.62324 1.158826,0 1.431481,-0.15581 1.431481,-0.81799 0,-0.63622 0.272666,-0.81799 1.226983,-0.81799 1.050703,0 1.226981,0.15376 1.226981,1.07016 0,0.91046 -0.147154,1.04204 -0.986197,0.88166 -0.871258,-0.16656 -0.931296,-0.10063 -0.515112,0.56579 0.3212,0.51433 0.956997,0.75434 1.998188,0.75434 1.294872,0 1.62704,-0.19328 2.184376,-1.27103 0.772252,-1.49338 0.499688,-3.32424 -0.441157,-2.96321 -0.803166,0.30821 -1.831103,-0.56449 -1.831103,-1.55461 0,-1.07176 1.10188,-1.40406 1.990171,-0.60017 0.929799,0.84147 1.690789,0.85029 1.690789,0.0196 0,-0.87605 1.382886,-0.57317 1.559024,0.34142 0.09653,0.50133 -0.143312,0.72503 -0.813302,0.7585 -0.692974,0.0346 -0.75646,0.0981 -0.234477,0.23447 0.706661,0.18468 1.03275,1.35404 0.37757,1.35404 -0.185982,0 -0.26032,0.5303 -0.165195,1.17844 0.135267,0.92159 0.34265,1.13404 0.951647,0.97478 0.619084,-0.1619 0.7787,0.0157 0.7787,0.86655 0,0.97728 0.143145,1.0702 1.648809,1.0702 1.088318,0 1.728857,-0.20857 1.884234,-0.61351 0.311286,-0.81118 1.742841,-0.78733 2.058129,0.0342 0.369656,0.96327 0.980912,-0.18863 0.698086,-1.31552 -0.121303,-0.48346 -0.02174,-1.00199 0.221515,-1.15226 0.860267,-0.53168 0.424011,-1.84055 -0.989339,-2.96827 -1.405291,-1.12129 -1.831152,-2.27835 -1.022493,-2.77814 0.224943,-0.13903 0.408986,-0.63146 0.408986,-1.09434 0,-0.62119 0.200605,-0.78909 0.766158,-0.64119 0.589223,0.15409 0.719873,0.0234 0.565782,-0.56579 -0.110183,-0.42137 -0.560469,-0.76615 -1.00062,-0.76615 -1.111756,0 -0.795116,-1.39316 0.354013,-1.55763 0.581413,-0.0833 0.938866,0.12563 1.050066,0.61349 0.09271,0.4068 0.08804,-8.09462 -0.0097,-18.89209 -0.09833,-10.79747 -0.207647,-19.66542 -0.242911,-19.70657 -0.03527,-0.0411 -12.484338,-0.26508 -27.664593,-0.49757 -27.412729,-0.41989 -31.843152,-0.66504 -38.234351,-2.11566 -2.532159,-0.57472 -7.490308,-2.29788 -8.588893,-2.98499 -0.449891,-0.28137 -1.534125,-0.94557 -2.409405,-1.47598 L 10.808695,146.18278 11.8344,147.99 c 3.1457,5.54255 5.797882,10.41162 11.789165,21.64349 13.943077,26.13908 14.570205,27.15163 18.999682,30.67629 4.048727,3.22166 8.86737,4.88841 14.166701,4.90021 2.041817,0.005 2.775459,-0.14641 2.952376,-0.60746 0.296749,-0.77332 1.343162,-0.79653 1.7745,-0.0392 0.582938,1.0233 5.689958,1.42319 7.081027,0.55444 z m -2.459507,-1.3331 c 0,-0.33741 0.276063,-0.61349 0.613491,-0.61349 0.337415,0 0.613492,0.27608 0.613492,0.61349 0,0.33743 -0.276077,0.61349 -0.613492,0.61349 -0.337428,0 -0.613491,-0.27606 -0.613491,-0.61349 z m 20.16731,-0.87358 c -0.373095,-0.97224 0.40507,-1.96974 1.652907,-2.11879 1.187724,-0.14186 1.423301,0.57072 0.660096,1.99679 -0.516174,0.96446 -1.960494,1.04066 -2.313003,0.12205 z m -2.580543,-2.16387 c 0,-0.58532 0.262669,-0.84798 0.847981,-0.84798 1.048112,0 0.9292,1.35369 -0.13694,1.559 -0.490788,0.0946 -0.711041,-0.12576 -0.711041,-0.71102 z m -4.907931,-2.65438 c 0,-0.35617 0.291411,-0.64758 0.647568,-0.64758 0.356173,0 0.574728,0.21856 0.485682,0.48568 -0.252787,0.75836 -1.13325,0.88414 -1.13325,0.1619 z m -0.785711,-0.88615 c 0.01967,-0.47646 0.116574,-0.57338 0.247105,-0.24711 0.118107,0.29524 0.103553,0.648 -0.03229,0.7839 -0.135906,0.1359 -0.232573,-0.10568 -0.214813,-0.53679 z m 7.329618,-0.17042 c 0,-0.22495 -0.265209,-0.40899 -0.589346,-0.40899 -0.927196,0 -1.239967,-0.8921 -0.501986,-1.43173 0.368303,-0.2693 0.565547,-0.59371 0.43835,-0.72091 -0.44887,-0.44888 0.692335,-1.93732 1.485364,-1.93732 1.075779,0 1.065448,1.46706 -0.01439,2.04498 -0.956028,0.51165 -1.096568,1.63598 -0.204498,1.63598 0.337431,0 0.613495,0.27606 0.613495,0.61349 0,0.33742 -0.276064,0.61349 -0.613495,0.61349 -0.337415,0 -0.613491,-0.18405 -0.613491,-0.40899 z m -6.462114,-0.4908 c -0.711845,-0.71185 -0.618879,-2.37217 0.132816,-2.37217 0.560707,0 1.421366,1.50203 1.421366,2.48059 0,0.54206 -0.971462,0.47429 -1.554182,-0.1084 z m 3.372633,-1.18082 c -0.421483,-0.68197 0.526462,-1.46399 1.090667,-0.89978 0.471955,0.47194 0.176574,1.34441 -0.455151,1.34441 -0.198393,0 -0.484377,-0.20009 -0.635516,-0.44463 z m -19.063868,-1.88995 c -1.10587,-0.16945 -1.774904,-1.09025 -1.323187,-1.82113 0.311853,-0.50459 3.534733,-8.2e-4 3.923642,0.61338 0.33577,0.53019 -0.390045,1.52366 -1.049158,1.43607 -0.253642,-0.0338 -0.951725,-0.13644 -1.551297,-0.22832 z m 20.108378,-4.00484 c 0,-0.74982 0.218133,-1.02248 0.817989,-1.02248 0.599854,0 0.817988,0.27266 0.817988,1.02248 0,0.74982 -0.218134,1.02249 -0.817988,1.02249 -0.599856,0 -0.817989,-0.27267 -0.817989,-1.02249 z m 0,-2.45395 c 0,-0.81801 0.204497,-1.0225 1.022487,-1.0225 0.817987,0 1.022484,0.20449 1.022484,1.0225 0,0.81797 -0.204497,1.02247 -1.022484,1.02247 -0.81799,0 -1.022487,-0.2045 -1.022487,-1.02247 z M 36.48573,150.41125 c -13.01514,-0.78843 -19.280392,-3.15562 -25.608363,-9.67553 -3.2330633,-3.33113 -5.069298,-6.36961 -6.2472373,-10.33749 -1.6538279,-5.57096 -0.5093669,-9.63464 8.0170373,-28.46627 3.165225,-6.990801 3.896888,-8.201901 6.284904,-10.403082 4.63178,-4.269444 9.829768,-4.694689 19.394133,-1.586624 5.045753,1.639677 10.6254,4.455225 12.4552,6.285028 1.153769,1.15377 1.450632,1.769454 1.450632,3.008646 0,2.378952 -1.559827,4.946502 -3.702527,6.094552 -1.608692,0.86192 -2.149787,0.9438 -4.68187,0.70848 -6.468983,-0.60119 -13.909572,-2.5427 -18.342152,-4.78611 -0.865346,-0.43798 -1.642067,-0.72762 -1.726032,-0.64364 -0.08402,0.0839 0.163933,0.78332 0.550876,1.55411 1.09243,2.17608 2.864824,3.10763 6.93767,3.64637 5.441137,0.71974 5.526926,0.7617 6.324563,3.09336 0.383814,1.12196 0.718868,3.32825 0.744558,4.90287 l 0.04673,2.86297 0.602372,-1.63597 c 0.331311,-0.89979 0.733665,-2.92432 0.894125,-4.49895 0.327303,-3.21181 0.137795,-3.10664 4.014443,-2.22803 1.774002,0.40207 2.192982,0.68567 2.755438,1.86515 0.760583,1.59496 2.836211,3.01759 4.405946,3.01981 2.365877,0.004 3.663175,0.51562 4.268023,1.68526 1.251102,2.41938 4.624896,3.06035 8.359681,1.58823 2.655604,-1.04673 2.862974,-1.03094 2.862974,0.2181 0,1.32368 -1.106298,3.48811 -5.533956,10.82708 -1.967059,3.26045 -4.790079,7.99864 -6.273373,10.52929 -1.483306,2.53066 -2.930364,4.6012 -3.215697,4.6012 -0.285322,0 -0.519211,0.4141 -0.519746,0.92024 -4.09e-4,0.50611 -0.690715,1.95522 -1.533729,3.22019 -0.843015,1.265 -1.730042,2.63455 -1.971171,3.04345 -0.537954,0.91225 -3.256262,1.0572 -11.01344,0.58731 z m 11.592112,-3.66874 c 0.935125,-1.56774 1.700215,-3.27256 1.700215,-3.78846 0,-0.56207 0.352507,-1.09983 0.879519,-1.34176 0.483739,-0.22205 1.56072,-1.60002 2.393291,-3.06219 0.832583,-1.46214 3.64673,-6.18944 6.253671,-10.5051 5.08123,-8.41168 6.162437,-10.34283 5.924144,-10.58113 -0.08326,-0.0833 -1.046377,0.11785 -2.140135,0.447 -1.093753,0.32918 -2.557536,0.59445 -3.252873,0.58952 -1.935904,-0.0138 -4.603713,-1.40276 -5.307245,-2.76325 -0.558129,-1.07929 -0.872101,-1.2233 -3.10921,-1.42617 -2.907292,-0.26361 -4.135615,-0.96004 -5.49701,-3.11661 -0.785008,-1.24355 -1.314191,-1.62025 -2.55481,-1.81862 -0.860609,-0.13762 -1.748785,-0.3014 -1.973725,-0.36398 -0.228732,-0.0636 -0.524508,1.17908 -0.671076,2.8194 -0.295893,3.31143 -1.963523,7.4962 -2.98726,7.4962 -0.533969,0 -0.636474,-0.67318 -0.638389,-4.19221 -0.0027,-4.70356 -0.501961,-7.10698 -1.544186,-7.4315 -0.386649,-0.12041 -2.083366,-0.41264 -3.770467,-0.64943 -3.656063,-0.51313 -5.691777,-1.05299 -6.594394,-1.74881 -1.16124,-0.89516 -2.400377,-3.31445 -2.401961,-4.68957 -0.0012,-1.110989 0.151394,-1.32923 0.929954,-1.32923 0.512316,0 1.294514,0.24616 1.738225,0.546995 3.060933,2.075385 12.092555,4.577745 18.230468,5.051065 2.765501,0.21325 3.326425,0.13531 4.573708,-0.63554 1.848928,-1.1427 3.419175,-4.524072 2.713341,-5.84292 -0.827678,-1.546542 -2.533779,-2.775934 -6.715004,-4.838713 -6.045166,-2.982358 -10.535982,-4.213849 -15.541794,-4.261953 -4.954369,-0.0476 -6.314398,0.496206 -9.625349,3.848689 -2.349392,2.378866 -3.022205,3.683706 -9.1724279,17.788737 -2.3451423,5.37837 -4.517936,11.43489 -4.9344127,13.7543 -0.3306602,1.84148 0.6302438,5.77239 2.2716596,9.29307 1.4525215,3.11549 5.87993,7.86218 9.584858,10.27603 5.431253,3.53861 12.868714,5.10523 25.001512,5.26635 l 4.536949,0.0602 z m -2.389727,-0.80052 c 0,-0.46637 0.184041,-0.84797 0.408994,-0.84797 0.224952,0 0.408993,-0.27607 0.408993,-0.61349 0,-0.34083 0.363553,-0.61348 0.817989,-0.61348 0.454437,0 0.817989,0.27265 0.817989,0.61348 0,0.33742 -0.255621,0.61349 -0.568049,0.61349 -0.312427,0 -0.542488,0.31503 -0.511243,0.70008 0.03128,0.38503 -0.265274,0.76662 -0.658935,0.84796 -0.499073,0.1032 -0.715738,-0.10879 -0.715738,-0.70007 z m -1.635978,-1.72312 c 0,-0.25639 -0.304191,-0.68857 -0.67598,-0.96044 -0.797789,-0.58337 -0.410347,-1.43638 0.652423,-1.43638 0.428044,0 0.851275,0.39232 0.992761,0.92026 0.391117,1.45945 0.302634,1.94272 -0.355712,1.94272 -0.337416,0 -0.613492,-0.20976 -0.613492,-0.46616 z m 0,-6.69125 c 0,-0.88542 0.165362,-1.05588 0.920238,-0.94869 0.604016,0.0857 0.920237,0.41179 0.920237,0.94869 0,0.5369 -0.316221,0.86291 -0.920237,0.94867 -0.754876,0.10731 -0.920238,-0.0631 -0.920238,-0.94867 z m 7.770904,-6.13492 c 0,-0.33743 0.276064,-0.6135 0.613491,-0.6135 0.337416,0 0.613492,0.27607 0.613492,0.6135 0,0.3374 -0.276076,0.61349 -0.613492,0.61349 -0.337427,0 -0.613491,-0.27609 -0.613491,-0.61349 z m 118.127619,18.507 c -0.35045,-0.28119 -2.0707,-3.08791 -3.8228,-6.23716 -7.59345,-13.64869 -8.91894,-16.01168 -12.27027,-21.87459 -1.94522,-3.40304 -3.45143,-6.40711 -3.34712,-6.67568 0.3316,-0.85377 20.98968,-13.37168 22.06701,-13.37168 0.20973,0 0.68692,-0.36421 1.06041,-0.80935 0.89728,-1.069442 10.68362,-6.961556 11.56259,-6.961556 0.37691,0 0.78074,-0.248745 0.89741,-0.552782 0.36615,-0.954136 9.13771,-6.020934 9.9102,-5.7245 1.0029,0.384853 10.40569,19.629498 10.41084,21.307838 0.002,0.90307 0.19945,1.32923 0.61347,1.32923 0.35631,0 1.41389,1.57114 2.54661,3.78321 2.90863,5.68025 3.18331,6.42945 2.66278,7.26296 -0.35903,0.57489 -0.31382,0.70433 0.23126,0.66235 1.20099,-0.0925 2.36644,5.02201 1.29522,5.68403 -0.23408,0.14469 -0.31703,0.6052 -0.1843,1.02338 0.41985,1.32283 -1.41205,4.18036 -4.71274,7.35116 -2.3896,2.29559 -4.51541,3.807 -8.44454,6.00388 -5.84007,3.26528 -7.98468,4.19785 -13.57148,5.90133 -7.34226,2.23872 -15.35818,3.13871 -16.90455,1.89793 z m 10.62069,-1.36406 c 9.98838,-2.05423 21.69978,-7.70442 27.47937,-13.25749 3.38075,-3.24826 4.70786,-5.26745 4.30214,-6.54572 -0.1369,-0.43133 0.0573,-1.24347 0.43497,-1.82004 0.59672,-0.91072 0.60371,-1.04112 0.0558,-1.04112 -0.34454,0 -0.98336,0.48999 -1.41959,1.08886 -0.52743,0.72405 -1.01847,1.0024 -1.4656,0.83082 -0.84117,-0.3228 -0.88191,-1.75177 -0.059,-2.06759 0.34232,-0.13135 0.6135,-0.73939 0.6135,-1.37568 0,-0.62715 0.19197,-1.78323 0.42662,-2.56905 0.39131,-1.31064 0.24881,-1.79236 -1.7234,-5.82548 -1.45509,-2.9756 -2.37073,-4.3967 -2.83287,-4.3967 -0.69604,0 -1.17167,-1.10983 -1.18171,-2.75732 -0.004,-0.50426 -1.42863,-3.76997 -3.1679,-7.25712 -2.5163,-5.045025 -3.30301,-6.295588 -3.85104,-6.121664 -0.96231,0.305435 -1.3573,-0.534479 -0.76863,-1.634437 0.41959,-0.783993 0.33302,-1.242211 -0.57214,-3.028458 -0.58658,-1.157581 -1.14834,-2.10469 -1.24834,-2.10469 -0.71132,0 -8.23785,5.089359 -8.47514,5.730794 -0.1891,0.511189 -0.6404,0.784327 -1.23296,0.746192 -0.88588,-0.05696 -4.89621,2.138177 -9.62581,5.269003 -2.07958,1.37661 -2.79141,2.56882 -1.53373,2.56882 0.33744,0 0.61351,0.27608 0.61351,0.6135 0,0.33742 -0.27607,0.61349 -0.61351,0.61349 -0.33741,0 -0.6135,-0.27607 -0.6135,-0.61349 0,-0.7959 -1.52954,-0.77445 -2.86295,0.0401 -0.96938,0.59218 -0.97469,0.61467 -0.10223,0.43279 0.75254,-0.15687 0.92025,-0.0126 0.92025,0.79236 0,0.76963 -0.21671,0.98419 -0.99404,0.98419 -0.67789,0 -1.0356,-0.26021 -1.12473,-0.81814 -0.11773,-0.73653 -0.47759,-0.60045 -3.60716,1.36382 -1.91204,1.20008 -5.96109,3.71061 -8.99787,5.57893 -3.03679,1.86832 -5.55603,3.4211 -5.59832,3.45058 -0.0422,0.0295 1.68253,3.17851 3.83292,6.99781 5.15457,9.15506 8.86876,15.79729 11.7732,21.0545 1.30489,2.36194 2.65227,4.61653 2.99417,5.01019 0.81726,0.94099 5.81769,0.97396 10.22572,0.0674 z m 25.88394,-15.54105 c 0.0196,-0.47645 0.11659,-0.57337 0.24712,-0.24709 0.11811,0.29523 0.10352,0.648 -0.0323,0.7839 -0.1359,0.13589 -0.23258,-0.10568 -0.21482,-0.53681 z m -0.16861,-1.67005 c -0.60175,-0.60175 -0.21429,-1.66762 0.76907,-2.11567 1.5102,-0.68809 2.23023,-0.58472 2.23023,0.32016 0,1.22977 -2.23004,2.56476 -2.9993,1.79551 z m -3.95362,-3.4083 c 0,-0.67334 0.21199,-0.84476 0.92024,-0.74419 0.50613,0.072 0.92024,0.40677 0.92024,0.74419 0,0.33743 -0.41411,0.6723 -0.92024,0.74419 -0.70825,0.10063 -0.92024,-0.0709 -0.92024,-0.74419 z m -9.40686,-7.3619 c 0,-0.67335 0.21198,-0.84477 0.92024,-0.74418 0.50611,0.072 0.92022,0.40675 0.92022,0.74418 0,0.33742 -0.41411,0.67231 -0.92022,0.7442 -0.70826,0.10063 -0.92024,-0.0709 -0.92024,-0.7442 z m -35.99153,-0.2045 c 0,-0.33742 0.27605,-0.61348 0.61348,-0.61348 0.33742,0 0.6135,0.27606 0.6135,0.61348 0,0.33742 -0.27608,0.6135 -0.6135,0.6135 -0.33743,0 -0.61348,-0.27608 -0.61348,-0.6135 z m 49.64705,-1.60783 c -0.3153,-0.8217 0.91336,-2.27762 1.92211,-2.27762 0.79777,0 1.47955,1.51623 0.92503,2.05719 -0.19107,0.1864 -0.8518,0.46346 -1.46831,0.61572 -0.83713,0.20674 -1.18621,0.10667 -1.37883,-0.39529 z m -14.06453,-2.89112 c 0,-0.74982 0.21813,-1.02248 0.818,-1.02248 0.59986,0 0.81799,0.27266 0.81799,1.02248 0,0.74983 -0.21813,1.02251 -0.81799,1.02251 -0.59987,0 -0.818,-0.27268 -0.818,-1.02251 z m -31.49258,-2.04497 c 0,-0.3374 0.27607,-0.61348 0.61349,-0.61348 0.33743,0 0.61348,0.27608 0.61348,0.61348 0,0.33743 -0.27605,0.6135 -0.61348,0.6135 -0.33742,0 -0.61349,-0.27607 -0.61349,-0.6135 z m 43.76242,0.2045 c 0,-0.22494 -0.3484,-0.40898 -0.77422,-0.40898 -0.80456,0 -1.44387,-1.02498 -1.04344,-1.67287 0.12653,-0.20466 -0.14898,-0.37212 -0.61216,-0.37212 -0.46317,0 -0.84213,-0.23926 -0.84213,-0.53168 0,-0.77395 0.86253,-1.51328 1.76546,-1.51328 0.60107,0 0.74126,0.22295 0.60111,0.95608 -0.1515,0.7925 0.0918,1.075 1.42172,1.65118 1.14417,0.49571 1.53494,0.87635 1.36208,1.32684 -0.13335,0.34746 -0.24243,0.7087 -0.24243,0.80278 0,0.0942 -0.36809,0.17105 -0.818,0.17105 -0.44989,0 -0.81799,-0.18405 -0.81799,-0.409 z m -11.78298,-0.71574 c 0.0758,-0.39366 0.40888,-0.71574 0.74013,-0.71574 0.33127,0 0.66433,0.32208 0.74014,0.71574 0.0965,0.50219 -0.12412,0.71574 -0.74014,0.71574 -0.616,0 -0.83685,-0.21355 -0.74013,-0.71574 z m 4.93233,0.44307 c -0.73345,-0.29338 -0.63154,-2.1608 0.13395,-2.45455 0.96885,-0.37178 2.11006,0.93115 1.56813,1.79033 -0.48929,0.77569 -0.96214,0.96021 -1.70208,0.66422 z m -29.95885,-3.40828 c 0,-0.45442 0.27264,-0.81798 0.61348,-0.81798 0.34082,0 0.6135,0.36356 0.6135,0.81798 0,0.45445 -0.27268,0.81799 -0.6135,0.81799 -0.34084,0 -0.61348,-0.36354 -0.61348,-0.81799 z m 27.5347,0.16322 c -0.25885,-0.67454 0.57432,-1.47556 1.29941,-1.24926 0.22495,0.0702 0.46782,0.52732 0.53969,1.01583 0.0989,0.67125 -0.0791,0.8882 -0.72857,0.8882 -0.4726,0 -0.97234,-0.29464 -1.11053,-0.65477 z m -20.71814,-0.027 c -0.563,-0.56299 -0.24288,-1.3633 0.54533,-1.3633 0.54532,0 0.81798,0.27267 0.81798,0.818 0,0.78821 -0.8003,1.10833 -1.36331,0.54531 z m 4.69846,-0.36208 c 0.0777,-0.40092 0.38894,-0.81142 0.69161,-0.91219 0.352,-0.11722 0.4994,0.0794 0.409,0.5457 -0.0777,0.40091 -0.38894,0.81142 -0.69161,0.91219 -0.35199,0.11723 -0.49939,-0.0793 -0.409,-0.5457 z M 200.03674,109.03 c 0.31637,-1.58187 0.10104,-1.41148 2.22799,-1.76302 1.69382,-0.27995 1.76611,-0.2504 1.63598,0.66902 -0.0945,0.66726 -0.44937,1.00529 -1.15865,1.10351 -0.56237,0.0778 -1.16967,0.39996 -1.34957,0.71573 -0.17988,0.31578 -0.61699,0.57415 -0.97136,0.57415 -0.50572,0 -0.58839,-0.27945 -0.38439,-1.29939 z m -34.35777,-0.11248 c -0.29311,-0.7638 0.13506,-1.45106 0.90404,-1.45106 0.83573,0 1.22897,1.23084 0.53387,1.671 -0.8132,0.5149 -1.1773,0.4592 -1.43791,-0.21994 z m 9.53263,-2.12419 c -0.57893,-0.57893 -0.25133,-1.37183 0.5668,-1.37183 0.57177,0 0.80491,0.22209 0.71573,0.68185 -0.14598,0.75273 -0.84415,1.12834 -1.28253,0.68998 z m 25.48549,-0.96284 c 0,-0.61601 0.21357,-0.83685 0.71574,-0.74013 0.39366,0.0758 0.71574,0.40886 0.71574,0.74013 0,0.33126 -0.32208,0.66432 -0.71574,0.74012 -0.50217,0.0966 -0.71574,-0.12411 -0.71574,-0.74012 z m -20.78087,-0.30676 c 0.0758,-0.39366 0.40887,-0.71574 0.74015,-0.71574 0.33125,0 0.66429,0.32208 0.74011,0.71574 0.0967,0.50219 -0.1241,0.71575 -0.74011,0.71575 -0.61603,0 -0.83687,-0.21356 -0.74015,-0.71575 z m -3.75882,-1.94271 c 0,-0.74983 0.21814,-1.0225 0.818,-1.0225 0.59987,0 0.81797,0.27267 0.81797,1.0225 0,0.74982 -0.2181,1.02248 -0.81797,1.02248 -0.59986,0 -0.818,-0.27266 -0.818,-1.02248 z m 24.61664,0.31144 c 0.20532,-1.06615 1.55902,-1.18505 1.55902,-0.13694 0,0.58531 -0.26266,0.84798 -0.84796,0.84798 -0.58532,0 -0.80556,-0.22025 -0.71106,-0.71104 z m -11.1198,-1.3339 c 0,-0.63622 0.27265,-0.81799 1.22698,-0.81799 0.95431,0 1.22698,0.18177 1.22698,0.81799 0,0.63622 -0.27267,0.81799 -1.22698,0.81799 -0.95433,0 -1.22698,-0.18177 -1.22698,-0.81799 z m -7.60244,-0.15089 c -0.30697,-0.79997 0.11135,-1.48508 0.90661,-1.48508 0.40153,0 0.57204,0.31091 0.4871,0.88819 -0.15869,1.07852 -1.06065,1.4648 -1.39371,0.59689 z m 4.33047,-0.41252 c 0,-0.30988 0.28387,-0.79901 0.63083,-1.08695 0.77745,-0.64523 1.64772,0.0429 1.2768,1.00936 -0.30305,0.7897 -1.90763,0.85497 -1.90763,0.0775 z m 8.99789,-2.146182 c 0,-0.990985 0.10124,-1.053351 1.31645,-0.810322 2.50756,0.501513 2.57425,1.883944 0.0909,1.883944 -1.24636,0 -1.40734,-0.1228 -1.40734,-1.073622 z m 2.55622,-0.856139 c -0.86193,-0.309195 -0.60935,-1.751203 0.30674,-1.751203 0.53704,0 0.818,0.272662 0.818,0.793854 0,0.901702 -0.37947,1.224689 -1.12474,0.957349 z m -6.49074,-1.527125 c -0.2913,-0.759093 0.13369,-1.451068 0.8912,-1.451068 0.35598,0 0.58936,0.404893 0.58936,1.022492 0,1.123794 -1.09245,1.440031 -1.48056,0.428576 z m -2.53153,-0.53083 c 0.0758,-0.393654 0.50087,-0.715739 0.94463,-0.715739 0.44372,0 0.86881,0.322085 0.94462,0.715739 0.10329,0.536089 -0.13385,0.715739 -0.94462,0.715739 -0.81078,0 -1.04788,-0.17965 -0.94463,-0.715739 z m 2.04093,-4.290259 c 0.19392,-1.359394 1.56215,-1.478877 1.56215,-0.136417 0,0.791604 -0.20979,1.052479 -0.84641,1.052479 -0.6429,0 -0.81503,-0.220308 -0.71574,-0.916062 z m 22.0119,31.838915 c 0,-0.0884 -0.28564,-0.27035 -0.63476,-0.40431 -0.36396,-0.13968 -0.52812,-0.0712 -0.38484,0.16074 0.24018,0.38862 1.0196,0.57481 1.0196,0.24357 z M 58.241782,114.40875 c -1.962615,-1.5438 -1.832085,-2.27871 0.833119,-4.69058 2.732863,-2.47308 6.205261,-7.27023 7.685759,-10.617919 0.732734,-1.656832 1.267037,-2.315739 2.033914,-2.508208 3.100016,-0.778054 6.912836,3.774097 5.955889,7.110757 -1.57151,5.47954 -8.670315,11.53461 -13.522838,11.53461 -1.321368,0 -2.265468,-0.26203 -2.985843,-0.82866 z m 6.912496,-1.49493 c 4.461286,-2.17946 9.174768,-8.32855 8.553246,-11.15833 -0.373959,-1.7026 -2.695161,-4.104857 -3.966359,-4.104857 -0.806868,0 -1.182677,0.396379 -1.917596,2.022496 -1.322591,2.926461 -4.626709,7.665341 -7.073505,10.145101 -1.165274,1.18097 -2.264433,2.14723 -2.442563,2.14723 -0.77104,0 0.293504,1.36566 1.449891,1.86004 1.502102,0.64213 2.593817,0.45772 5.396886,-0.91168 z m -15.273973,-2.45118 c -1.483626,-1.03493 -1.116855,-2.23188 1.692975,-5.52497 3.362597,-3.94095 4.085232,-5.33848 3.772307,-7.295418 -0.380176,-2.377508 1.935227,-8.349537 4.061597,-10.4759 1.718076,-1.71808 5.748985,-1.075897 7.319321,1.16608 0.795887,1.136289 0.821755,4.298248 0.0586,7.164832 -1.839849,6.911066 -10.133902,15.707786 -14.735637,15.628756 -0.68691,-0.0114 -1.663033,-0.31032 -2.16917,-0.66338 z m 5.425278,-1.58983 c 3.712716,-2.1758 9.003639,-8.957098 10.269016,-13.161633 0.309785,-1.029322 0.563249,-2.943918 0.563249,-4.254657 0,-2.32114 -0.04188,-2.410912 -1.611194,-3.449393 -3.035071,-2.00852 -4.730791,-0.777906 -7.088943,5.144573 -0.703138,1.765917 -1.058314,3.438712 -1.057905,4.982487 8.17e-4,2.809013 -0.0558,2.920413 -3.695568,7.287363 -2.598451,3.11755 -2.826622,3.52923 -2.210219,3.98769 1.080403,0.80355 2.887359,0.60296 4.831564,-0.53643 z m 81.905357,-2.86183 c -0.61295,-0.33262 -1.30817,-0.96674 -1.54491,-1.40914 -0.55059,-1.02876 -1.80789,-8.020995 -4.70646,-26.17395 -1.2751,-7.985623 -2.42273,-14.795383 -2.55029,-15.132805 -0.12755,-0.337421 -0.54325,2.423293 -0.9238,6.134921 -0.38055,3.711626 -0.82446,7.336964 -0.98649,8.056303 -0.65638,2.914436 -4.73812,5.127713 -7.65785,4.152384 -1.93547,-0.646541 -3.56891,-2.296979 -3.87191,-3.912253 -0.27569,-1.46945 1.6885,-22.609195 2.33666,-25.148577 0.34536,-1.353122 0.1636,-2.051727 -1.70247,-6.543916 -2.64089,-6.357323 -6.83139,-14.445524 -9.15659,-17.673417 -3.65851,-5.078843 -8.308625,-8.835939 -14.649146,-11.835911 -6.29659,-2.979188 -6.800362,-2.907687 21.334326,-3.027852 15.75396,-0.0673 24.86839,0.04023 25.1778,0.297016 0.3187,0.264502 0.62586,0.261559 0.89601,-0.0085 0.24787,-0.247878 1.34905,-0.30082 2.77389,-0.13336 2.02463,0.237956 2.46609,0.447517 3.08431,1.464099 0.69619,1.144765 0.72969,1.155002 0.95544,0.291754 0.21618,-0.826634 0.399,-0.873053 2.40487,-0.61067 3.47605,0.45469 7.78451,2.864195 11.64732,6.51376 4.74896,4.486791 7.81707,9.226197 12.45881,19.245497 1.36487,2.946096 3.4659,7.417868 4.66897,9.937278 2.74045,5.738937 3.21147,7.405238 2.66483,9.427324 -0.85083,3.147357 -2.82918,4.60119 -6.26118,4.60119 -2.22342,0 -3.22018,-0.702864 -5.04728,-3.559071 -1.31733,-2.059309 -1.51982,-2.2186 -2.0924,-1.646013 -0.5726,0.572594 -0.49043,0.870203 0.84908,3.075265 1.15238,1.897034 1.48303,2.873245 1.48303,4.37866 0,1.693624 -0.19308,2.130421 -1.53483,3.472161 -1.87875,1.878754 -4.16099,2.415232 -6.36216,1.495531 -1.05379,-0.440303 -1.92701,-1.353119 -3.15603,-3.299136 -0.93453,-1.479727 -1.86668,-2.690413 -2.07147,-2.690413 -0.6559,0 -0.40018,1.200392 0.58997,2.769484 0.52926,0.838728 2.80279,4.65377 5.0523,8.47787 2.24951,3.824101 5.12933,8.717365 6.39962,10.873919 1.99013,3.378674 2.30958,4.208726 2.30958,6.001286 0,3.528005 -2.63915,5.731001 -6.36279,5.311302 -2.94091,-0.33149 -2.0555,0.89717 -14.80964,-20.550527 -2.14028,-3.599154 -4.13086,-6.802699 -4.42351,-7.118987 -1.08578,-1.173467 -1.04577,1.571493 0.20619,14.150418 1.52558,15.328306 1.56639,17.211726 0.40495,18.688246 -1.74422,2.21743 -5.37824,2.98768 -7.82675,1.65891 z m 6.62395,-2.03093 c 0.94703,-0.95012 1.02653,-1.30202 0.94092,-4.165325 -0.0514,-1.720143 -0.56674,-7.754359 -1.14513,-13.409382 -0.5784,-5.655023 -0.99642,-11.557831 -0.92899,-13.117351 l 0.12271,-2.8355 h 1.22211 c 1.16776,0 1.57713,0.590332 9.20238,13.270582 8.84548,14.709352 9.32134,15.269735 12.22761,14.398993 2.26125,-0.677493 3.52356,-2.215705 3.52356,-4.293706 0,-1.324694 -0.42958,-2.403085 -1.90122,-4.772725 -1.04566,-1.683747 -2.80825,-4.625747 -3.9169,-6.5378 -1.10862,-1.91205 -3.61194,-6.183786 -5.56294,-9.492746 -1.95099,-3.308963 -3.54725,-6.369226 -3.54725,-6.800583 0,-0.992971 0.9666,-1.812559 1.92094,-1.628774 0.40326,0.07767 1.49177,1.300612 2.4189,2.71766 2.17352,3.322109 3.0252,3.91473 5.20578,3.622257 1.27299,-0.170746 2.04754,-0.606076 3.07701,-1.729409 1.67051,-1.822844 1.60268,-3.048933 -0.34171,-6.176804 -0.93655,-1.506579 -1.26075,-2.470952 -1.1655,-3.466964 0.11682,-1.222371 0.28235,-1.394351 1.45019,-1.507165 1.20323,-0.116231 1.44623,0.07273 2.78489,2.165369 0.903,1.411617 1.99842,2.546306 2.85042,2.952597 1.28077,0.610757 1.52014,0.607829 3.21461,-0.0393 2.01597,-0.769904 3.06955,-2.048532 3.40837,-4.136351 0.24118,-1.486263 -1.60023,-5.88968 -8.16554,-19.526478 -2.83528,-5.889155 -3.42886,-6.850662 -4.22915,-6.850662 -1.477,0 -3.03268,-2.927685 -1.77792,-3.345932 0.7362,-0.245401 -1.94671,-3.797163 -5.23919,-6.935927 -3.28482,-3.131462 -7.69432,-5.800095 -10.57147,-6.39788 -1.48129,-0.307765 -1.6197,-0.251295 -2.24586,0.916224 -0.91657,1.709052 -2.09103,1.643092 -2.45527,-0.137897 -0.34019,-1.663278 -0.9133,-2.079833 -2.87289,-2.08809 -1.14506,-0.0049 -1.53511,0.181417 -1.69993,0.811726 -0.11761,0.449893 -0.40871,0.81799 -0.64682,0.81799 -0.23808,0 -0.62988,-0.368097 -0.87066,-0.81799 -0.43002,-0.803481 -0.8528,-0.817869 -23.83833,-0.811156 l -23.400545,0.0069 3.359035,1.803558 c 4.842577,2.600112 6.52083,3.848703 9.76825,7.267386 4.50768,4.745403 8.35402,11.461406 12.92062,22.560286 1.46574,3.562401 1.63014,4.284644 1.39663,6.134921 -0.76105,6.030118 -2.28335,21.589452 -2.28709,23.376133 -0.0101,4.676587 4.36667,6.575078 7.93488,3.442159 1.59083,-1.396773 1.62384,-1.534077 2.49073,-10.363599 0.35105,-3.575656 0.73547,-6.658452 0.85425,-6.85066 0.35336,-0.571741 1.69799,-0.396876 1.94747,0.253267 0.12717,0.331502 1.34177,7.463348 2.69902,15.848544 4.25634,26.295854 4.34517,26.668464 6.46926,27.136514 0.61452,0.13541 1.30135,0.2938 1.52629,0.35197 0.85855,0.22202 2.88122,-0.6233 3.87351,-1.61881 z m 0.82993,-64.845638 c 0,-1.04811 1.3537,-0.929207 1.55903,0.136932 0.0945,0.490792 -0.12577,0.711045 -0.71107,0.711045 -0.58529,0 -0.84796,-0.262669 -0.84796,-0.847977 z m 13.49683,-3.009028 c 0,-0.855914 0.19501,-1.050932 1.05093,-1.050932 0.8559,0 1.02667,0.170764 0.92023,0.920237 -0.084,0.591392 -0.45954,0.966943 -1.05093,1.050933 -0.74948,0.10644 -0.92023,-0.06431 -0.92023,-0.920238 z m -4.63528,-2.55058 c -0.62089,-0.620883 -0.21253,-1.363314 0.74983,-1.363314 0.74982,0 1.02248,0.21813 1.02248,0.817988 0,0.798004 -1.16207,1.155562 -1.77231,0.545326 z m -3.13562,-8.520721 c 0,-0.33742 0.27607,-0.613494 0.61349,-0.613494 0.33741,0 0.61348,0.276074 0.61348,0.613494 0,0.337419 -0.27607,0.613491 -0.61348,0.613491 -0.33742,0 -0.61349,-0.276072 -0.61349,-0.613491 z m -12.67884,-1.226984 c 0,-0.340829 0.36355,-0.613494 0.81799,-0.613494 0.45443,0 0.81799,0.272665 0.81799,0.613494 0,0.340826 -0.36356,0.61349 -0.81799,0.61349 -0.45444,0 -0.81799,-0.272664 -0.81799,-0.61349 z m 17.84786,-0.408995 c -0.35892,-0.935368 0.1439,-1.840478 1.02249,-1.840478 0.99238,0 1.42119,1.045461 0.75707,1.845684 -0.6483,0.781163 -1.47874,0.77873 -1.77956,-0.0052 z m -4.97257,-3.898442 c -0.15883,-0.257001 -0.0962,-0.659726 0.13889,-0.894942 0.54963,-0.549648 1.83112,-0.07023 1.6075,0.601404 -0.22765,0.68371 -1.38502,0.878245 -1.74639,0.293538 z m -15.18031,-2.642738 c -0.14166,-0.369166 -0.0799,-0.848921 0.13734,-1.066121 0.57236,-0.572358 1.8212,0.02778 1.67182,0.803405 -0.17338,0.900239 -1.49109,1.091591 -1.80916,0.262716 z M 48.665836,91.848897 c -2.52377,-1.397539 -4.670697,-2.754741 -4.770954,-3.01602 -0.294066,-0.76631 2.509994,-7.18711 3.665385,-8.393085 2.023826,-2.112405 5.166324,-1.87893 8.44922,0.627744 1.017724,0.777091 1.963739,1.864467 2.102263,2.416391 0.469886,1.872161 -2.948698,10.553189 -4.250606,10.793827 -0.33365,0.06162 -2.671525,-1.03132 -5.195308,-2.428857 z m 6.540257,-1.873478 c 0.798554,-1.746951 1.581227,-3.865569 1.739273,-4.708043 0.264916,-1.412116 0.164736,-1.644091 -1.282641,-2.969832 -1.766316,-1.617885 -4.070356,-2.469761 -5.624718,-2.07964 -0.572633,0.143721 -1.478735,0.858038 -2.013548,1.587369 -0.914097,1.246551 -3.314128,6.445619 -3.064547,6.638576 0.06307,0.04879 1.403045,0.804625 2.977671,1.679656 1.574638,0.875039 3.415112,1.903793 4.089956,2.286117 0.67483,0.382313 1.339407,0.705686 1.476807,0.718607 0.137412,0.01287 0.903191,-1.405858 1.701747,-3.15281 z M 39.912246,87.648484 c -0.203209,-0.2032 -8.039679,-1.424394 -9.254684,-1.442199 -0.901915,-0.01319 -0.554042,-1.494068 1.268045,-5.397814 2.368379,-5.074188 2.835049,-5.454668 6.651124,-5.422791 2.664746,0.02225 3.224009,0.167615 4.721132,1.226984 2.749346,1.945469 2.758234,2.028961 0.721612,6.782347 -1.562788,3.647451 -1.958196,4.252056 -2.849016,4.356279 -0.568918,0.06653 -1.135115,0.02034 -1.258213,-0.102763 z m 2.13952,-2.574432 c 0.449111,-1.068498 1.203194,-2.810075 1.675724,-3.870173 0.726262,-1.629304 0.774602,-2.029333 0.312517,-2.586111 -1.862933,-2.244689 -7.267093,-3.041804 -8.892485,-1.311645 -0.80923,0.861388 -3.77422,6.873857 -3.77422,7.65344 0,0.193291 1.426372,0.484663 3.169706,0.647472 2.621894,0.244868 3.927133,0.517029 6.566916,1.369303 0.06882,0.02228 0.492716,-0.833787 0.941842,-1.902286 z M 83.749755,84.58795 c -0.463719,-0.463722 -0.843129,-1.009945 -0.843129,-1.213838 0,-0.203882 -0.32208,-0.287727 -0.71574,-0.186315 -0.415633,0.107089 -3.116627,-1.252247 -6.441672,-3.241891 -3.149252,-1.884461 -8.946751,-5.324669 -12.883333,-7.64491 -3.936564,-2.320242 -8.445728,-4.992146 -10.020353,-5.937571 -1.574639,-0.945428 -5.11755,-3.0449 -7.873153,-4.665499 -4.075413,-2.396797 -5.01018,-3.12011 -5.01018,-3.876796 0,-1.242179 2.88358,-5.318408 3.898468,-5.510873 1.009604,-0.191463 1.404195,-0.788063 1.412201,-2.135132 0.0038,-0.580036 0.589231,-1.960393 1.301754,-3.067459 17.872373,-27.768744 17.84763,-27.73601 22.515516,-29.782737 10.448724,-4.581458 21.270976,-0.05711 30.728512,12.846377 3.696764,5.043719 10.081614,14.983311 10.081614,15.694512 0,0.296346 -0.98653,2.084576 -2.19231,3.973853 -1.20575,1.889275 -4.55177,7.256502 -7.43556,11.927177 -2.883777,4.670671 -5.757119,8.995789 -6.385207,9.611376 -0.628078,0.615581 -1.147074,1.421637 -1.153316,1.791225 -0.0064,0.369591 -0.287445,0.777919 -0.624855,0.907403 -0.33743,0.12948 -0.613494,0.661758 -0.613494,1.182838 0,1.218072 -5.386605,9.8759 -6.249037,10.04401 -0.359465,0.0701 -1.032994,-0.252019 -1.496726,-0.71575 z m 3.569524,-4.986411 c -0.72964,-0.450932 -0.01319,-1.669318 0.825209,-1.403243 0.555473,0.176301 0.968796,-0.166048 1.637979,-1.356716 0.492289,-0.875888 0.895066,-1.970709 0.895066,-2.432938 0,-0.462226 0.184044,-0.954161 0.408987,-1.093187 0.224943,-0.139025 0.408998,-0.610006 0.408998,-1.046626 0,-0.436618 0.182626,-0.79385 0.405838,-0.79385 0.993795,0 2.256035,-1.842594 10.226384,-14.928306 1.50714,-2.474418 3.59643,-5.819504 4.64291,-7.433523 1.04645,-1.614017 1.90264,-3.03343 1.90264,-3.154258 0,-0.536927 -9.282923,-14.598672 -11.353916,-17.198892 -4.5359,-5.694985 -10.748752,-10.254556 -15.707811,-11.527855 -3.309149,-0.849665 -8.057822,-0.54093 -11.072967,0.719908 -4.818464,2.01493 -6.566737,4.049988 -15.054065,17.523502 -0.776606,1.232863 -2.373435,3.671494 -3.54849,5.419179 -1.415635,2.105495 -1.933096,3.177602 -1.533729,3.177602 0.331503,0 0.602728,-0.368096 0.602728,-0.81799 0,-0.545326 0.272667,-0.81799 0.818001,-0.81799 0.545322,0 0.817989,0.272664 0.817989,0.81799 0,0.449894 -0.152657,0.81799 -0.339229,0.81799 -0.186571,0 -0.324609,0.414107 -0.306745,0.920236 0.02668,0.757042 -0.185114,0.920238 -1.194514,0.920238 -0.978319,0 -1.212389,-0.165772 -1.154957,-0.817988 0.07099,-0.806324 0.06372,-0.806669 -0.511255,-0.02409 -0.32079,0.436651 -0.583256,0.962226 -0.583256,1.167942 0,0.205721 -0.460118,0.920852 -1.022485,1.58919 -1.236241,1.469194 -1.269641,1.810349 -0.204498,2.088891 0.564168,0.147529 0.817989,0.557873 0.817989,1.322366 0,0.975747 -0.128475,1.083896 -1.073075,0.903323 -0.810825,-0.154998 -1.122358,-0.01672 -1.274684,0.565815 -0.121809,0.466041 -0.564231,0.770942 -1.118491,0.770942 -0.655895,0 -1.335347,0.630248 -2.387007,2.214179 l -1.470143,2.214183 2.741469,1.629631 c 1.507796,0.896295 8.446934,4.989821 15.420292,9.096725 6.973351,4.106902 14.611324,8.64016 16.973268,10.073898 3.603408,2.187333 4.316455,2.489719 4.431203,1.879172 0.07521,-0.400196 0.362684,-0.911678 0.638836,-1.136625 0.276153,-0.224948 0.62294,-0.731077 0.770657,-1.124735 0.147704,-0.393659 0.464165,-0.715741 0.703227,-0.715741 0.23906,0 0.553493,0.322082 0.698745,0.715741 0.145239,0.393658 0.461549,0.857273 0.702909,1.030256 0.298125,0.213686 0.242137,0.475937 -0.174671,0.817991 -0.337416,0.276909 -0.854073,0.811076 -1.148112,1.187037 -0.467744,0.598061 -0.428582,0.655831 0.313116,0.461874 0.46626,-0.121925 0.947765,-0.383523 1.070009,-0.581316 0.477407,-0.772476 1.457668,-0.358336 1.326972,0.560613 -0.08287,0.582701 -0.393353,0.899405 -0.846437,0.863427 -0.885008,-0.07031 -0.889338,0.02909 -0.03831,0.880128 0.63032,0.630328 0.770134,0.526635 2.018275,-1.496882 0.865936,-1.403895 1.184469,-2.270877 0.899134,-2.447228 z M 83.89474,78.690287 c -0.387711,-1.010355 -0.01149,-2.082744 0.783373,-2.235916 0.611014,-0.117672 0.716852,0.08936 0.608794,1.190794 -0.140146,1.428412 -0.997972,2.07239 -1.392167,1.045122 z m 8.009775,-9.273114 c 0,-0.443032 0.275924,-0.805156 0.613484,-0.805156 0.33742,0 0.613497,0.256382 0.613497,0.569733 0,0.313356 -0.276077,0.675671 -0.613497,0.805155 -0.417293,0.16013 -0.613484,-0.02209 -0.613484,-0.569732 z m -8.997889,10.237701 c 0,-0.224948 -0.194908,-0.408995 -0.433139,-0.408995 -0.238218,0 -0.319373,0.184047 -0.180352,0.408995 0.139021,0.224946 0.333929,0.408994 0.433127,0.408994 0.0992,0 0.180364,-0.184048 0.180364,-0.408994 z"
     id="path1566"
     inkscape:connector-curvature="0" />
</svg>
